<svg xmlns="http://www.w3.org/2000/svg" width="16.509" height="16.253" viewBox="0 0 16.509 16.253">
  <g id="icons-09" transform="translate(-99.88 -103.906)">
    <path id="Path_2147" data-name="Path 2147" d="M99.88,115.329a5.064,5.064,0,0,1,.22-.7,2.309,2.309,0,0,1,2.181-1.42c1.542-.022,3.085-.008,4.629,0a.8.8,0,0,1,.842.811.809.809,0,0,1-.859.795h-4.548a.8.8,0,0,0-.834.617,1.23,1.23,0,0,0-.021.273q0,5.128,0,10.258a.81.81,0,0,0,.892.888h8.645a.813.813,0,0,0,.892-.892v-2.387a.8.8,0,0,1,1.581-.218,1.3,1.3,0,0,1,.024.256c0,.8.006,1.6,0,2.4a2.4,2.4,0,0,1-2,2.4,3.124,3.124,0,0,1-.546.041c-2.844,0-5.688-.013-8.532.007a2.446,2.446,0,0,1-2.541-2.09c0-.014-.017-.027-.025-.039Z" transform="translate(0 -8.304)" fill="#fff"/>
    <path id="Path_2148" data-name="Path 2148" d="M145.263,115.8h-1.049a.8.8,0,0,1-.849-.823c-.008-.672-.01-1.345.017-2.017a4.052,4.052,0,0,1,1.246-2.769q2.677-2.686,5.361-5.361a3.07,3.07,0,0,1,4.535,4.135c-.082.092-.167.183-.255.27l-5.244,5.248a4.285,4.285,0,0,1-3.184,1.316Zm-.289-1.609h.912a2.653,2.653,0,0,0,1.993-.828q1.688-1.7,3.386-3.388c.04-.04.077-.083.106-.106l-2.067-2.067c-.018.016-.048.038-.073.064-1.156,1.156-2.316,2.306-3.462,3.472a3.29,3.29,0,0,0-.524.727,4.26,4.26,0,0,0-.27,2.123Zm7.574-5.486c.261-.274.543-.546.8-.842a1.446,1.446,0,0,0,.08-1.688,1.486,1.486,0,0,0-1.592-.623c-.622.165-.939.7-1.368,1.069Z" transform="translate(-38.865 0)" fill="#fff"/>
  </g>
</svg>
