<svg xmlns="http://www.w3.org/2000/svg" width="23.537" height="55.766" viewBox="0 0 23.537 55.766">
  <path id="Key_Gold_" data-name="Key(Gold)" d="M101.275,78.755A11.663,11.663,0,1,0,87.287,90.186v17H84.521a2.335,2.335,0,0,0,0,4.664h2.766v2.325H84.521a2.335,2.335,0,0,0,0,4.664h2.766v1.49a2.33,2.33,0,1,0,4.66,0V90.19A11.692,11.692,0,0,0,101.275,78.755Zm-4.664,0a7,7,0,1,1-6.994-7A7,7,0,0,1,96.611,78.755Z" transform="translate(101.375 122.756) rotate(180)" fill="#f8ca26" stroke="#f8ca27" stroke-width="0.2"/>
</svg>
