<svg xmlns="http://www.w3.org/2000/svg" width="22.787" height="22.771" viewBox="0 0 22.787 22.771">
  <g id="icons-03" transform="translate(0)">
    <path id="Path_2116" data-name="Path 2116" d="M95.091,85.45h.934a1.953,1.953,0,0,0,.216.04,9.5,9.5,0,0,1,4.948,1.736,9.7,9.7,0,0,1,4.235,7.381,9.241,9.241,0,0,1-.842,4.81c-.334.713-.764,1.382-1.166,2.1.331.331.713.7,1.082,1.082a.577.577,0,0,0,.423.2,1.45,1.45,0,0,1,.972.385c.57.54,1.118,1.105,1.683,1.646a2.585,2.585,0,0,1,.859,1.364v.489a4.36,4.36,0,0,1-.172.5,1.779,1.779,0,0,1-2.933.469c-.593-.581-1.175-1.174-1.763-1.76a1.49,1.49,0,0,1-.533-1,1.179,1.179,0,0,0-.481-.867c-.24-.242-.493-.492-.741-.737a1.7,1.7,0,0,0-.139-.12.5.5,0,0,0-.054.03c-.078.057-.155.114-.234.17a9.68,9.68,0,0,1-8.934,1.394,9.889,9.889,0,0,1,1.362-19.131C94.238,85.546,94.666,85.507,95.091,85.45Zm.426,17.421A7.5,7.5,0,1,0,90.2,100.63a7.512,7.512,0,0,0,5.319,2.241Z" transform="translate(-85.649 -85.45)" fill="#fff"/>
    <path id="Path_2117" data-name="Path 2117" d="M139.59,146.973h3.043a1.028,1.028,0,0,1,.789.433.37.37,0,0,1,.052.265,2.033,2.033,0,0,1-.9,1.36,4.508,4.508,0,0,1-2.075.816,5.708,5.708,0,0,1-2.933-.291,3.331,3.331,0,0,1-1.509-1.061,1.6,1.6,0,0,1-.354-.85.423.423,0,0,1,.1-.292,1.064,1.064,0,0,1,.829-.384C137.625,146.986,138.61,146.973,139.59,146.973Z" transform="translate(-129.688 -139.572)" fill="#fff"/>
    <path id="Path_2118" data-name="Path 2118" d="M133.883,162.722a.826.826,0,0,1,.1.082,4.324,4.324,0,0,0,2.371,1.4,6.341,6.341,0,0,0,4.088-.285,3.823,3.823,0,0,0,1.5-1.082.949.949,0,0,0,.078-.12l.05.031a1.324,1.324,0,0,1,.018.153v2.078A1.007,1.007,0,0,1,141,166.058h-6.04a1.016,1.016,0,0,1-1.1-1.089c0-.673,0-1.376,0-2.063C133.868,162.849,133.883,162.8,133.883,162.722Z" transform="translate(-128.069 -153.429)" fill="#fff"/>
    <path id="Path_2119" data-name="Path 2119" d="M156.682,134.147h-.737c-.026,0-.063-.053-.076-.089a.584.584,0,0,0-.6-.423h-.816a.559.559,0,0,0-.574.4.143.143,0,0,1-.168.12h-.649a1.35,1.35,0,0,1,1.12-1.284,8.009,8.009,0,0,1,1.315,0A1.317,1.317,0,0,1,156.682,134.147Z" transform="translate(-144.954 -127.146)" fill="#fff"/>
  </g>
</svg>
