<svg xmlns="http://www.w3.org/2000/svg" xmlns:xlink="http://www.w3.org/1999/xlink" width="24" height="24" viewBox="0 0 24 24"><defs><style>.a,.c{fill:#fff;}.a{stroke:#707070;}.b{clip-path:url(#a);}</style><clipPath id="a"><rect class="a" width="24" height="24" transform="translate(30 200)"/></clipPath></defs><g class="b" transform="translate(-30 -200)"><g transform="translate(30 200)"><path class="c" d="M0,10.545v6.211a3.239,3.239,0,0,0,3.239,3.239H20.761A3.239,3.239,0,0,0,24,16.756V10.545a.563.563,0,0,0-.563-.563H.563A.563.563,0,0,0,0,10.545Zm5.992,3.943H4.49a.986.986,0,1,1,0-1.971h1.5a.986.986,0,0,1,0,1.971Z"/><path class="c" d="M24,7.447v-.2a3.239,3.239,0,0,0-3.239-3.239H3.239A3.239,3.239,0,0,0,0,7.244v.2a.563.563,0,0,0,.563.563H23.437A.563.563,0,0,0,24,7.447Z"/></g></g></svg>