<svg xmlns="http://www.w3.org/2000/svg" xmlns:xlink="http://www.w3.org/1999/xlink" width="24" height="24" viewBox="0 0 24 24"><defs><style>.a,.c{fill:#fff;}.a{stroke:#707070;}.b{clip-path:url(#a);}</style><clipPath id="a"><rect class="a" width="24" height="24" transform="translate(30 200)"/></clipPath></defs><g class="b" transform="translate(-30 -200)"><path class="c" d="M23.128,3.122,16.315,1.7a.99.99,0,0,0-.2-.021.92.92,0,0,0-.384.084.827.827,0,0,0-.138-.012.917.917,0,0,0-.426.109L8.278,5.449a1.1,1.1,0,0,0-.135.084A1.02,1.02,0,0,0,8,5.474L1.164,3.339a.962.962,0,0,0-.288-.045.879.879,0,0,0-.876.9V19.043a1.188,1.188,0,0,0,.805,1.1l6.833,2.135a.965.965,0,0,0,.288.045.873.873,0,0,0,.316-.059.822.822,0,0,0,.166.017.917.917,0,0,0,.426-.108l6.887-3.587a1.11,1.11,0,0,0,.163-.105,1.041,1.041,0,0,0,.185.057l6.813,1.419a.985.985,0,0,0,.2.021A.913.913,0,0,0,24,19.043V4.194A1.114,1.114,0,0,0,23.128,3.122ZM1.2,4.612l6.4,2V21L1.2,19ZM8.8,20.826V6.58a.191.191,0,0,1,.042-.069L15.2,3.2V17.449a.193.193,0,0,1-.042.069ZM22.8,18.7l-6.4-1.332V2.95l6.4,1.332Z" transform="translate(30 200)"/></g></svg>