<svg xmlns="http://www.w3.org/2000/svg" xmlns:xlink="http://www.w3.org/1999/xlink" width="24" height="24" viewBox="0 0 24 24"><defs><style>.a,.c{fill:#fff;}.a{stroke:#707070;}.b{clip-path:url(#a);}</style><clipPath id="a"><rect class="a" width="24" height="24" transform="translate(30 200)"/></clipPath></defs><g class="b" transform="translate(-30 -200)"><g transform="translate(30 200)"><path class="c" d="M12,0a6.328,6.328,0,1,0,6.328,6.328A6.335,6.335,0,0,0,12,0Z"/><path class="c" d="M19.873,16.79a9.021,9.021,0,0,0-6.467-2.728H10.594A9.021,9.021,0,0,0,4.127,16.79,9.222,9.222,0,0,0,1.453,23.3a.7.7,0,0,0,.7.7H21.844a.7.7,0,0,0,.7-.7A9.222,9.222,0,0,0,19.873,16.79Z"/></g></g></svg>