<svg xmlns="http://www.w3.org/2000/svg" xmlns:xlink="http://www.w3.org/1999/xlink" width="24" height="24" viewBox="0 0 24 24"><defs><style>.a,.c{fill:#fff;}.a{stroke:#707070;}.b{clip-path:url(#a);}</style><clipPath id="a"><rect class="a" width="24" height="24" transform="translate(30 200)"/></clipPath></defs><g class="b" transform="translate(-30 -200)"><g transform="translate(30 200)"><path class="c" d="M15.75,1.5H14.121a2.251,2.251,0,0,0-4.243,0H8.25a.75.75,0,0,0-.75.75v1.5a.75.75,0,0,0,.75.75h7.5a.75.75,0,0,0,.75-.75V2.25A.75.75,0,0,0,15.75,1.5Z"/><path class="c" d="M19.5,3H18v.75A2.253,2.253,0,0,1,15.75,6H8.25A2.253,2.253,0,0,1,6,3.75V3H4.5A1.5,1.5,0,0,0,3,4.5v18A1.484,1.484,0,0,0,4.5,24h15A1.484,1.484,0,0,0,21,22.5V4.5A1.484,1.484,0,0,0,19.5,3ZM12.75,7.576A3.758,3.758,0,0,1,15.674,10.5H12.75Zm-1.5,0V11.25A.75.75,0,0,0,12,12h3.673A3.75,3.75,0,1,1,11.25,7.576ZM12.75,21h-6a.75.75,0,0,1,0-1.5h6a.75.75,0,0,1,0,1.5Zm4.5-3H6.75a.75.75,0,0,1,0-1.5h10.5a.75.75,0,0,1,0,1.5Z"/></g></g></svg>