<svg xmlns="http://www.w3.org/2000/svg" xmlns:xlink="http://www.w3.org/1999/xlink" width="24" height="24" viewBox="0 0 24 24"><defs><style>.a,.c{fill:#fff;}.a{stroke:#707070;}.b{clip-path:url(#a);}</style><clipPath id="a"><rect class="a" width="24" height="24" transform="translate(30 200)"/></clipPath></defs><g class="b" transform="translate(-30 -200)"><path class="c" d="M21,0H3A3,3,0,0,0,0,3V16.5a3,3,0,0,0,3,3H4.5v3.75a.749.749,0,0,0,.432.68A.761.761,0,0,0,5.25,24a.75.75,0,0,0,.48-.174L10.922,19.5H21a3,3,0,0,0,3-3V3A3,3,0,0,0,21,0Z" transform="translate(30 200)"/></g></svg>