<svg id="icons-07" xmlns="http://www.w3.org/2000/svg" width="22.782" height="19.964" viewBox="0 0 22.782 19.964">
  <path id="Path_2122" data-name="Path 2122" d="M155.14,154.462c-.3.566-.676.652-1.2.274-1.14-.814-2.285-1.623-3.419-2.443a2.125,2.125,0,0,0-1.288-.409q-3.9.007-7.809,0a2.574,2.574,0,0,1-2.7-2.692V148.7a.666.666,0,1,1,1.332,0,3.642,3.642,0,0,1,0,.444,1.305,1.305,0,0,0,1.4,1.415c2.588-.026,5.171-.012,7.764-.007a4.5,4.5,0,0,1,.724.06,3.141,3.141,0,0,1,1.33.583q1.147.824,2.3,1.64c.065.047.132.089.224.152,0-.1.011-.166.011-.24v-9.894a1.244,1.244,0,0,0-1.323-1.341h-1.625a.677.677,0,0,1-.74-.66.669.669,0,0,1,.721-.672,18.141,18.141,0,0,1,2.11.046,2.485,2.485,0,0,1,2.151,2.1,1,1,0,0,0,.04.12Z" transform="translate(-132.358 -135.002)" fill="#30c57b"/>
  <path id="Path_2123" data-name="Path 2123" d="M94.849,97.166h6.607a.669.669,0,0,1,.747.493,1.015,1.015,0,0,1,.026.263v8.343a2.574,2.574,0,0,1-2.6,2.614q-3.938.008-7.875,0a2.225,2.225,0,0,0-1.365.441c-1.146.83-2.3,1.649-3.456,2.467a.674.674,0,0,1-1.1-.333,1.323,1.323,0,0,1-.022-.309V99.868a2.571,2.571,0,0,1,2.7-2.695C90.618,97.162,92.732,97.166,94.849,97.166Zm-7.71,12.815c.089-.058.152-.095.209-.136.767-.546,1.538-1.082,2.3-1.641a3.4,3.4,0,0,1,2.077-.66c2.6.01,5.207,0,7.809,0a1.255,1.255,0,0,0,1.359-1.358V98.511c-.091,0-.158-.01-.222-.01H88.5a1.248,1.248,0,0,0-1.36,1.374v10.1Z" transform="translate(-85.808 -97.165)" fill="#30c57b"/>
  <path id="Path_2124" data-name="Path 2124" d="M124.644,128.782h-3.8a.655.655,0,0,1-.624-.962.673.673,0,0,1,.641-.361h7.559a.69.69,0,0,1,.762.59.66.66,0,0,1-.69.742c-.712.006-1.423,0-2.134,0Z" transform="translate(-116.01 -123.815)" fill="#30c57b"/>
  <path id="Path_2125" data-name="Path 2125" d="M124.66,154.6h-3.824a.657.657,0,0,1-.617-.972.69.69,0,0,1,.665-.361h7.532a.687.687,0,0,1,.759.594.66.66,0,0,1-.7.738h-3.82Z" transform="translate(-116.008 -146.524)" fill="#30c57b"/>
</svg>
