<svg xmlns="http://www.w3.org/2000/svg" width="317.827" height="126.079" viewBox="0 0 317.827 126.079"><defs><style>.a{fill:rgba(255,255,255,0.29);}</style></defs><g transform="translate(0 -149.333)"><g transform="translate(0 149.333)"><path class="a" d="M290.925,159.333l-264.022-10c-14.837,0-26.9,11.309-26.9,25.216V250.2c0,13.907,12.065,25.216,26.9,25.216l264.023-10c14.837,0,26.9-11.309,26.9-25.216V184.549C317.827,170.642,305.762,159.333,290.925,159.333ZM81.364,216.368a6.093,6.093,0,0,1,2.463,8.613,6.817,6.817,0,0,1-5.832,3.152,7.034,7.034,0,0,1-3.356-.843l-7.382-4v7.991a6.74,6.74,0,0,1-13.452,0v-7.991l-7.382,4a7.034,7.034,0,0,1-3.356.843,6.816,6.816,0,0,1-5.832-3.152,6.093,6.093,0,0,1,2.463-8.613l7.382-4-7.382-4a6.093,6.093,0,0,1-2.463-8.613,6.971,6.971,0,0,1,9.189-2.308l7.382,4v-7.991a6.74,6.74,0,0,1,13.452,0v7.991l7.382-4a6.977,6.977,0,0,1,9.189,2.308,6.093,6.093,0,0,1-2.463,8.613l-7.382,4Zm67.255,0a6.093,6.093,0,0,1,2.463,8.613,6.817,6.817,0,0,1-5.832,3.152,7.034,7.034,0,0,1-3.356-.843l-7.382-4v7.991a6.74,6.74,0,0,1-13.452,0v-7.991l-7.382,4a7.034,7.034,0,0,1-3.356.843,6.816,6.816,0,0,1-5.832-3.152,6.093,6.093,0,0,1,2.463-8.613l7.382-4-7.382-4a6.093,6.093,0,0,1-2.463-8.613,6.967,6.967,0,0,1,9.189-2.308l7.382,4v-7.991a6.74,6.74,0,0,1,13.452,0v7.991l7.382-4a6.977,6.977,0,0,1,9.189,2.308,6.093,6.093,0,0,1-2.463,8.613l-7.382,4Zm67.256,0a6.093,6.093,0,0,1,2.463,8.613,6.817,6.817,0,0,1-5.832,3.152,7.034,7.034,0,0,1-3.356-.843l-7.382-4v7.991a6.74,6.74,0,0,1-13.452,0v-7.991l-7.382,4a7.034,7.034,0,0,1-3.356.843,6.816,6.816,0,0,1-5.832-3.152,6.093,6.093,0,0,1,2.463-8.613l7.382-4-7.382-4a6.093,6.093,0,0,1-2.463-8.613,6.971,6.971,0,0,1,9.189-2.308l7.382,4v-7.991a6.74,6.74,0,0,1,13.452,0v7.991l7.382-4a6.977,6.977,0,0,1,9.189,2.308,6.093,6.093,0,0,1-2.463,8.613l-7.382,4Zm67.256,0a6.093,6.093,0,0,1,2.463,8.613,6.817,6.817,0,0,1-5.832,3.152,7.034,7.034,0,0,1-3.356-.843l-7.382-4v7.991a6.74,6.74,0,0,1-13.452,0v-7.991l-7.382,4a7.034,7.034,0,0,1-3.356.843A6.816,6.816,0,0,1,239,224.98a6.093,6.093,0,0,1,2.463-8.613l7.382-4-7.382-4A6.093,6.093,0,0,1,239,199.765a6.969,6.969,0,0,1,9.189-2.308l7.382,4v-7.991a6.74,6.74,0,0,1,13.452,0v7.991l7.382-4a6.974,6.974,0,0,1,9.189,2.308,6.093,6.093,0,0,1-2.463,8.613l-7.382,4Z" transform="translate(0 -149.333)"/></g></g></svg>