<svg xmlns="http://www.w3.org/2000/svg" width="309.115" height="309.115" viewBox="0 0 309.115 309.115"><defs><style>.a{fill:rgba(255,255,255,0.29);}</style></defs><g transform="translate(0 61.69) rotate(-14)"><g transform="translate(0 0)"><path class="a" d="M7.226,187.144l35.661-35.586c12.736-12.709,34.387-7.625,39.482,8.9,3.821,11.439,16.557,17.794,28.019,15.251,25.472-6.355,59.859-39.4,66.227-66.088,3.821-11.439-3.821-24.148-15.283-27.96-16.557-5.084-21.651-26.689-8.915-39.4L188.078,6.672c10.189-8.9,25.472-8.9,34.387,0l24.2,24.148c24.2,25.419-2.547,92.778-62.407,152.511S56.9,271.026,31.424,245.607l-24.2-24.148C-1.69,211.292-1.69,196.041,7.226,187.144Z" transform="translate(-0.539 0)"/></g></g></svg>