<?xml version="1.0" encoding="UTF-8"?>
<svg xmlns="http://www.w3.org/2000/svg" xmlns:xlink="http://www.w3.org/1999/xlink" viewBox="0 0 50 50" width="50px" height="50px">
<g id="surface10720036">
<path style="fill-rule:nonzero;fill:rgb(100%,100%,100%);fill-opacity:1;stroke-width:10;stroke-linecap:butt;stroke-linejoin:round;stroke:rgb(100%,100%,100%);stroke-opacity:1;stroke-miterlimit:10;" d="M 165.117726 86.000001 C 165.117726 129.625662 129.625662 165.117726 86.000001 165.117726 C 42.374339 165.117726 6.882275 129.625662 6.882275 86.000001 C 6.882275 42.374339 42.374339 6.882275 86.000001 6.882275 C 129.625662 6.882275 165.117726 42.374339 165.117726 86.000001 Z M 127.279432 82.558863 L 89.441138 82.558863 L 89.441138 44.720569 L 82.558863 44.720569 L 82.558863 82.558863 L 44.720569 82.558863 L 44.720569 89.441138 L 82.558863 89.441138 L 82.558863 127.279432 L 89.441138 127.279432 L 89.441138 89.441138 L 127.279432 89.441138 Z M 127.279432 82.558863 " transform="matrix(0.274709,0,0,0.274709,1.375,1.375)"/>
<path style=" stroke:none;fill-rule:nonzero;fill:rgb(100%,100%,100%);fill-opacity:1;" d="M 25 3.265625 C 13.015625 3.265625 3.265625 13.015625 3.265625 25 C 3.265625 36.984375 13.015625 46.734375 25 46.734375 C 36.984375 46.734375 46.734375 36.984375 46.734375 25 C 46.734375 13.015625 36.984375 3.265625 25 3.265625 Z M 36.339844 25.945312 L 25.945312 25.945312 L 25.945312 36.339844 L 24.054688 36.339844 L 24.054688 25.945312 L 13.660156 25.945312 L 13.660156 24.054688 L 24.054688 24.054688 L 24.054688 13.660156 L 25.945312 13.660156 L 25.945312 24.054688 L 36.339844 24.054688 Z M 36.339844 25.945312 "/>
</g>
</svg>
