<svg xmlns="http://www.w3.org/2000/svg" width="23.049" height="23.081" viewBox="0 0 23.049 23.081">
  <path id="icons-04" d="M96.092,84.38h.361c.149.069.3.133.446.207l10.1,5.05a1.726,1.726,0,0,1,.776.611v.721a1.72,1.72,0,0,1-.795.62c-1.041.513-2.078,1.035-3.116,1.554-.07.035-.136.073-.23.12.094.052.15.085.209.114,1.045.523,2.089,1.049,3.136,1.563a1.725,1.725,0,0,1,.795.622v.721a1.712,1.712,0,0,1-.795.62c-1.041.513-2.078,1.035-3.117,1.554-.069.035-.136.073-.228.12.094.052.15.085.209.114,1.045.523,2.089,1.049,3.136,1.563a1.725,1.725,0,0,1,.795.622v.721a1.72,1.72,0,0,1-.795.62q-2.467,1.225-4.93,2.459-2.8,1.395-5.594,2.782H96.1c-.109-.049-.22-.094-.327-.147L92,105.431q-3.331-1.667-6.664-3.331a1.014,1.014,0,0,1-.548-.538.894.894,0,0,1,.481-1.148c1.14-.575,2.285-1.142,3.422-1.714.069-.034.135-.073.23-.126-.111-.058-.182-.1-.255-.133l-3.343-1.669a.99.99,0,0,1-.545-.534.9.9,0,0,1,.5-1.142q1.7-.853,3.4-1.7c.07-.035.136-.076.231-.129-.1-.055-.174-.095-.24-.131-1.107-.554-2.213-1.112-3.322-1.659a.921.921,0,0,1-.012-1.732c2-.991,3.987-1.991,5.981-2.986Q93.7,85.562,96.092,84.38ZM87.659,90.6c.083.046.12.07.161.089l8.3,4.151a.361.361,0,0,0,.361-.019q4.094-2.053,8.194-4.1c.063-.032.12-.071.209-.12-.091-.051-.153-.088-.218-.12q-4.1-2.044-8.192-4.1a.373.373,0,0,0-.376,0q-3.47,1.742-6.944,3.475Zm.013,5.324c.069.04.111.067.155.089q4.147,2.074,8.3,4.14a.423.423,0,0,0,.327-.011q4.12-2.044,8.233-4.114c.057-.029.109-.064.18-.106a1.036,1.036,0,0,0-.094-.061c-1.012-.507-2.024-1.017-3.042-1.514a.426.426,0,0,0-.326.026c-1.533.758-3.065,1.517-4.59,2.292a1.11,1.11,0,0,1-1.089,0c-1.519-.771-3.046-1.524-4.569-2.285a.406.406,0,0,0-.416,0c-.949.481-1.9.954-2.857,1.43C87.82,95.836,87.765,95.878,87.672,95.924Zm17.212,5.327c-.1-.058-.166-.1-.231-.129-.952-.481-1.907-.949-2.856-1.432a.4.4,0,0,0-.416.006c-1.52.766-3.047,1.519-4.569,2.285a1.11,1.11,0,0,1-1.089,0c-1.525-.776-3.059-1.533-4.586-2.3a.368.368,0,0,0-.375,0c-.534.275-1.073.539-1.61.807l-1.491.75c.089.051.143.085.2.113l8.23,4.121a.37.37,0,0,0,.375-.012q2.625-1.323,5.252-2.63Z" transform="translate(-84.726 -84.38)" fill="#fff"/>
</svg>
