<svg xmlns="http://www.w3.org/2000/svg" width="22.647" height="23.12" viewBox="0 0 22.647 23.12">
  <path id="Icon_material-settings" data-name="Icon material-settings" d="M21.526,14.595a7.281,7.281,0,0,0,0-2.07l2.228-1.742a.533.533,0,0,0,.127-.676L21.769,6.453a.531.531,0,0,0-.644-.232L18.5,7.277a7.715,7.715,0,0,0-1.785-1.035l-.4-2.8A.515.515,0,0,0,15.792,3H11.568a.515.515,0,0,0-.517.444l-.4,2.8A8.113,8.113,0,0,0,8.865,7.277L6.235,6.221a.515.515,0,0,0-.644.232L3.479,10.107a.521.521,0,0,0,.127.676l2.228,1.742A8.375,8.375,0,0,0,5.76,13.56a8.375,8.375,0,0,0,.074,1.035L3.606,16.337a.533.533,0,0,0-.127.676l2.112,3.654a.531.531,0,0,0,.644.232l2.629-1.056a7.715,7.715,0,0,0,1.785,1.035l.4,2.8a.515.515,0,0,0,.517.444h4.224a.515.515,0,0,0,.517-.444l.4-2.8A8.113,8.113,0,0,0,18.5,19.843L21.125,20.9a.515.515,0,0,0,.644-.232l2.112-3.654a.533.533,0,0,0-.127-.676l-2.228-1.742ZM13.68,17.256a3.7,3.7,0,1,1,3.7-3.7A3.7,3.7,0,0,1,13.68,17.256Z" transform="translate(-2.351 -2)" fill="none" stroke="#fff" stroke-width="2"/>
</svg>
