<svg xmlns="http://www.w3.org/2000/svg" width="220.657" height="251.059" viewBox="0 0 220.657 251.059"><defs><style>.a{fill:rgba(255,255,255,0.29);}</style></defs><g transform="translate(-31)"><g transform="translate(75.131)"><path class="a" d="M187.2,0a66.2,66.2,0,1,0,66.2,66.2A66.272,66.272,0,0,0,187.2,0Z" transform="translate(-121)"/></g><g transform="translate(31 147.105)"><path class="a" d="M223.691,328.536A94.368,94.368,0,0,0,156.039,300H126.618a94.369,94.369,0,0,0-67.652,28.536A96.472,96.472,0,0,0,31,396.6a7.355,7.355,0,0,0,7.355,7.355H244.3a7.355,7.355,0,0,0,7.355-7.355A96.472,96.472,0,0,0,223.691,328.536Z" transform="translate(-31 -300)"/></g></g></svg>