<svg xmlns="http://www.w3.org/2000/svg" width="23.099" height="23.093" viewBox="0 0 23.099 23.093">
  <path id="icons-01" d="M107.423,100.649a1.028,1.028,0,0,1-1.127.727c-1.247-.019-2.5,0-3.742-.011a2.7,2.7,0,1,1-.052-5.4c.946-.02,1.894,0,2.84-.006h.277V93.544a1.821,1.821,0,0,0-1.954-1.958H87.411c-.416,0-.833-.058-1.27-.09v12.2a1.824,1.824,0,0,0,1.973,1.961q7.722,0,15.443.006a1.926,1.926,0,0,0,2-1.29.877.877,0,0,1,.979-.55.85.85,0,0,1,.735.866,2.388,2.388,0,0,1-.3.884,3.541,3.541,0,0,1-2.674,1.852.331.331,0,0,0-.078.037H87.537a.5.5,0,0,0-.1-.041,3.5,3.5,0,0,1-2.746-2.044,8.619,8.619,0,0,1-.361-1.123V88.474c.053-.147.1-.295.161-.44A2.568,2.568,0,0,1,86.7,86.263a17.876,17.876,0,0,1,1.935-.041.9.9,0,1,1-.006,1.8H87.073a.88.88,0,1,0,0,1.757c.368,0,.736.011,1.1,0a.842.842,0,0,0,.4-.113q4.058-2.454,8.106-4.918c.222-.135.456-.251.684-.378h.361a1.213,1.213,0,0,1,.731.654c.106.206.234.4.352.6l.541.914,2.1-1.3a.942.942,0,0,1,1.505.361q1.424,2.338,2.855,4.672a1.427,1.427,0,0,0,.29.335,3.333,3.333,0,0,1,1,1.313c.142.361.221.741.329,1.113ZM91.9,89.767h7.266L97.238,86.52Zm13.708,9.8v-1.8c-.053,0-.1-.007-.139-.007h-2.816a.9.9,0,1,0-.006,1.8h1.24Zm-2.211-9.786c-.552-.905-1.082-1.766-1.606-2.631l-1.519.944c.325.55.631,1.074.944,1.593a.2.2,0,0,0,.135.09c.67.006,1.342,0,2.05,0Z" transform="translate(-84.33 -84.37)" fill="#30c57b"/>
</svg>
